<svg width="115" height="115" viewBox="0 0 115 115" fill="none" xmlns="http://www.w3.org/2000/svg">
<path fill-rule="evenodd" clip-rule="evenodd" d="M31.1458 31.1458C31.1458 33.7922 29.0006 35.9375 26.3542 35.9375C23.7077 35.9375 21.5625 33.7922 21.5625 31.1458C21.5625 28.4995 23.7077 26.3542 26.3542 26.3542C29.0006 26.3542 31.1458 28.4995 31.1458 31.1458ZM26.3542 40.7292C31.647 40.7292 35.9375 36.4386 35.9375 31.1458C35.9375 25.8531 31.647 21.5625 26.3542 21.5625C21.0613 21.5625 16.7708 25.8531 16.7708 31.1458C16.7708 36.4386 21.0613 40.7292 26.3542 40.7292Z" fill="white"/>
<path fill-rule="evenodd" clip-rule="evenodd" d="M98.2291 33.5417C98.2291 40.1576 92.8659 45.5208 86.25 45.5208C84.4113 45.5208 82.6693 45.1065 81.1123 44.3663C81.0145 44.5276 80.8959 44.6798 80.7566 44.8191L71.8946 53.681C73.4034 56.1981 74.2708 59.1435 74.2708 62.2917C74.2708 71.554 66.7622 79.0625 57.5 79.0625C55.6542 79.0625 53.8779 78.7645 52.2171 78.2134L50.9502 80.7477C53.4591 82.4756 55.1041 85.3688 55.1041 88.6458C55.1041 93.9387 50.8137 98.2292 45.5208 98.2292C40.2279 98.2292 35.9375 93.9387 35.9375 88.6458C35.9375 83.353 40.2279 79.0625 45.5208 79.0625C45.8222 79.0625 46.1202 79.0764 46.4149 79.1037L47.9329 76.0677C43.5787 73.0384 40.7291 67.9976 40.7291 62.2917C40.7291 58.5158 41.9769 55.0318 44.0823 52.2287C43.9932 52.1616 43.9079 52.0878 43.8265 52.0068L36.639 44.8191C35.7036 43.8835 35.7036 42.3665 36.639 41.4309C37.5748 40.4952 39.0918 40.4952 40.0276 41.4309L47.2151 48.6182C47.2961 48.6996 47.3699 48.7849 47.437 48.874C50.2401 46.7685 53.7241 45.5208 57.5 45.5208C61.8786 45.5208 65.8652 47.1989 68.8522 49.9469L77.2977 41.5016C75.4147 39.3854 74.2708 36.5971 74.2708 33.5417C74.2708 26.9258 79.6341 21.5625 86.25 21.5625C92.8659 21.5625 98.2291 26.9258 98.2291 33.5417ZM86.25 40.7292C90.2195 40.7292 93.4375 37.5112 93.4375 33.5417C93.4375 29.5721 90.2195 26.3542 86.25 26.3542C82.2804 26.3542 79.0625 29.5721 79.0625 33.5417C79.0625 37.5112 82.2804 40.7292 86.25 40.7292ZM45.5208 93.4375C48.1672 93.4375 50.3125 91.2923 50.3125 88.6458C50.3125 85.9994 48.1672 83.8542 45.5208 83.8542C42.8744 83.8542 40.7291 85.9994 40.7291 88.6458C40.7291 91.2923 42.8744 93.4375 45.5208 93.4375ZM57.5 74.2708C64.1158 74.2708 69.4791 68.9075 69.4791 62.2917C69.4791 55.6758 64.1158 50.3125 57.5 50.3125C50.8841 50.3125 45.5208 55.6758 45.5208 62.2917C45.5208 68.9075 50.8841 74.2708 57.5 74.2708Z" fill="white"/>
</svg>
